<?xml version="1.0" standalone="no"?>
<!DOCTYPE svg PUBLIC "-//W3C//DTD SVG 20010904//EN"
 "http://www.w3.org/TR/2001/REC-SVG-20010904/DTD/svg10.dtd">
<svg version="1.0" xmlns="http://www.w3.org/2000/svg"
 width="1280.000000pt" height="863.000000pt" viewBox="0 0 1280.000000 863.000000"
 preserveAspectRatio="xMidYMid meet">
<metadata>
Created by potrace 1.15, written by Peter Selinger 2001-2017
</metadata>
<g transform="translate(0.000000,863.000000) scale(0.100000,-0.100000)"
fill="#150f61" stroke="none">
<path d="M6160 7724 c-668 -38 -1375 -186 -1970 -411 -716 -271 -1310 -639
-1829 -1131 l-144 -137 -81 -23 c-111 -31 -325 -138 -421 -209 -207 -154 -352
-354 -416 -575 -26 -93 -36 -278 -20 -374 31 -178 133 -379 244 -483 l25 -23
164 11 c369 25 651 43 1528 97 484 30 430 15 497 133 157 276 169 582 33 854
-42 84 -124 198 -179 251 -17 17 -31 33 -31 37 0 22 384 207 640 309 978 389
2095 537 3167 419 409 -44 812 -128 1189 -245 134 -41 352 -119 362 -128 2 -3
-20 -33 -50 -68 -131 -154 -200 -293 -234 -466 -18 -93 -18 -248 0 -332 27
-127 105 -297 176 -381 l25 -31 265 17 c146 8 330 20 410 25 80 6 217 14 305
20 88 5 270 17 405 25 135 8 380 24 544 34 339 21 305 9 358 121 48 102 68
167 84 280 17 119 13 193 -18 320 -88 368 -417 667 -857 780 -75 19 -91 28
-165 89 -273 228 -555 411 -896 581 -649 326 -1329 514 -2145 595 -152 16
-804 28 -965 19z"/>
<path d="M6190 5954 c-455 -40 -834 -151 -1200 -353 -565 -311 -1045 -794
-1419 -1428 -132 -224 -313 -618 -391 -853 -152 -457 -230 -822 -276 -1285
-32 -325 -27 -945 8 -1045 20 -59 25 -60 488 -60 l422 0 29 29 c16 16 29 39
29 50 0 25 67 80 245 200 879 591 2106 801 3244 555 555 -119 1062 -343 1474
-649 93 -70 117 -93 117 -112 0 -14 13 -37 29 -54 l29 -29 362 0 362 0 28 28
c26 27 28 34 36 158 13 190 10 707 -4 869 -44 484 -126 874 -282 1345 -78 235
-259 629 -391 853 -374 634 -854 1117 -1419 1428 -310 171 -668 288 -1015 334
-118 15 -418 27 -505 19z m1015 -683 c76 -36 131 -91 164 -161 l26 -55 0 -740
0 -740 -26 -55 c-33 -71 -89 -126 -164 -162 l-60 -28 -747 0 c-735 0 -748 0
-803 21 -77 29 -156 108 -184 184 -21 57 -21 64 -19 794 l3 736 24 48 c33 69
109 141 173 166 52 19 74 20 803 20 l750 1 60 -29z"/>
<path d="M6810 5090 l0 -101 58 3 57 3 3 98 3 97 -61 0 -60 0 0 -100z"/>
<path d="M5850 5080 l0 -101 58 3 57 3 0 95 0 95 -57 3 -58 3 0 -101z"/>
<path d="M6170 5085 l0 -96 58 3 57 3 3 93 3 92 -61 0 -60 0 0 -95z"/>
<path d="M6490 5080 l0 -101 58 3 57 3 3 98 3 97 -61 0 -60 0 0 -100z"/>
<path d="M6170 4715 l0 -86 58 3 57 3 0 80 0 80 -57 3 -58 3 0 -86z"/>
<path d="M6810 4715 l0 -85 60 0 60 0 0 85 0 85 -60 0 -60 0 0 -85z"/>
<path d="M5850 4708 l0 -83 57 1 58 2 3 81 3 81 -61 0 -60 0 0 -82z"/>
<path d="M6490 4711 l0 -79 56 -4 c31 -1 58 -1 60 1 2 2 4 40 4 83 l0 78 -60
0 -60 0 0 -79z"/>
<path d="M6810 4360 l0 -100 60 0 60 0 0 100 0 100 -60 0 -60 0 0 -100z"/>
<path d="M6170 4355 l0 -95 60 0 61 0 -3 93 -3 92 -57 3 -58 3 0 -96z"/>
<path d="M6490 4350 l0 -101 58 3 57 3 3 98 3 97 -61 0 -60 0 0 -100z"/>
<path d="M5850 4345 l0 -95 60 0 60 0 0 95 0 95 -60 0 -60 0 0 -95z"/>
<path d="M6170 3985 l0 -85 60 0 61 0 -3 83 -3 82 -57 3 -58 3 0 -86z"/>
<path d="M6810 3985 l0 -85 60 0 61 0 -3 83 -3 82 -57 3 -58 3 0 -86z"/>
<path d="M5850 3975 l0 -86 58 3 57 3 3 83 3 82 -61 0 -60 0 0 -85z"/>
<path d="M6490 3975 l0 -86 58 3 57 3 0 80 0 80 -57 3 -58 3 0 -86z"/>
<path d="M6170 3637 l0 -68 58 3 57 3 0 64 0 63 -58 2 -57 1 0 -68z"/>
<path d="M6863 3702 l-53 -3 0 -60 0 -59 60 0 60 0 0 59 c0 33 -3 61 -7 63 -5
2 -32 2 -60 0z"/>
<path d="M5850 3633 l0 -68 57 1 58 2 3 66 3 66 -61 0 -60 0 0 -67z"/>
<path d="M6490 3635 l0 -66 58 3 57 3 0 60 0 60 -57 3 -58 3 0 -66z"/>
</g>
</svg>
